# xmcd
#
# Track frame offsets: 
#        150
#        14290
#        44462
#        59743
#        72376
#        84230
#        103143
#        118567
#        128622
#        144718
#        158527
#        173781
#        200263
#        217493
#        242617
#        261810
#        276338
#        299440
#
# Disc length: 4168 seconds
#
# Revision: 2
# Processed by: cddbd v1.5.2PL0 Copyright (c) Steve Scherf et al.
# Submitted via: ExactAudioCopy v1.1
#
DISCID=15104612
DTITLE=Gospel Songs And Spirituals - Gospel Songs And Spirituals - Go 
DTITLE=Tell It On The Mountain CD2
DYEAR=2001
DGENRE=Gospel
TTITLE0=Mahalia Jackson - Go Tell It On The Mountain
TTITLE1=Cissy Houston - How Sweet It Is
TTITLE2=Andrae Crouch and The Disciples - You Can Depend On Me
TTITLE3=The Doris Akers Choir - Go Down Moses
TTITLE4=Percy Sledge - Poor Little Jesus Boy
TTITLE5=Sister Rosetta Tharpe - I Do, Don't you?
TTITLE6=The Jordanaires - All My Trials
TTITLE7=The Johnny Thompson Singers - I'm Gonna Build My Life
TTITLE8=The Tennessee Gospel Society - Were You There?
TTITLE9=The Jordanaires - My Lord What A Mornin'
TTITLE10=Mahalia Jackson - Said He Would
TTITLE11=Cissy Houston - Too Close To Heaven
TTITLE12=The Myra Walker Singers - Oh It Is Jesus
TTITLE13=Andrae Crouch - Touch me
TTITLE14=The Johnny Thompson Singers - I've Got A Right To Praise The 
TTITLE14=Lord
TTITLE15=Mahalia Jackson - How I Got Over
TTITLE16=The Johnny Thompson Singers - He'll Understand And Say Well D
TTITLE16=one
TTITLE17=Etta James - This Little Light Of Mine
EXTD=
EXTT0=
EXTT1=
EXTT2=
EXTT3=
EXTT4=
EXTT5=
EXTT6=
EXTT7=
EXTT8=
EXTT9=
EXTT10=
EXTT11=
EXTT12=
EXTT13=
EXTT14=
EXTT15=
EXTT16=
EXTT17=
PLAYORDER=
